<svg width="160" height="80" viewBox="0 0 160 80" fill="none" xmlns="http://www.w3.org/2000/svg">
<path d="M18.7262 37.8935L30.9111 24.2907H22.0414L12.7689 35.1393V24.2907H5.88843V55.541H12.7689V43.8559L13.8961 42.6114L23.0054 55.541H31.2885L18.7262 37.8935Z" fill="#3860A4"/>
<path d="M44.4833 31.7781C37.3784 31.7781 32.4106 36.8275 32.4106 44.0548C32.4106 51.2821 37.2305 56 44.1313 56C49.9662 56 56.2448 52.1594 56.2448 43.7233C56.2448 36.6898 51.4096 31.7781 44.4833 31.7781ZM44.3966 37.5977C48.2219 37.5977 49.2369 41.6831 49.2369 43.8457C49.2369 47.5129 47.1661 50.1804 44.3098 50.1804C41.4536 50.1804 39.3828 47.5537 39.3828 43.9324C39.3828 41.0099 40.6937 37.5977 44.3966 37.5977Z" fill="#3860A4"/>
<path d="M72.5763 31.9464C72.0714 31.8291 71.643 31.7832 71.1023 31.7832C69.3019 31.7832 67.6136 32.4055 66.2569 33.4919L66.2161 32.2423H59.6162L59.7335 33.8846C59.8559 35.583 59.912 37.4957 59.912 40.0918V55.5512H66.9047V43.2286C66.9047 42.7236 66.9812 42.2391 67.0577 41.8106C67.3892 40.1224 68.5674 38.322 70.8881 38.322C71.3012 38.322 71.6124 38.3526 71.9337 38.4138L73.7698 38.7912V32.227L72.5865 31.9515L72.5763 31.9464Z" fill="#3860A4"/>
<path d="M91.1112 37.6742V43.6621H97.1297V49.4358C96.3341 49.6194 95.1457 49.7622 93.5646 49.7622C87.3727 49.7622 83.6749 46.0797 83.6749 39.9184C83.6749 33.7571 87.5512 30.1154 94.044 30.1154C97.0277 30.1154 98.7874 30.6968 99.9911 31.2069L101.547 31.8648L103.368 25.9994L102.149 25.4383C100.639 24.7447 97.7367 24 94.1307 24C83.6799 24 76.621 30.4622 76.57 40.0867C76.57 44.774 78.2531 49.0073 81.2011 51.7157C84.2512 54.4903 88.2091 55.8368 93.2993 55.8368C97.2828 55.8368 100.71 54.9493 102.883 54.2047L103.918 53.8527V37.6793H91.1061L91.1112 37.6742Z" fill="#3860A4"/>
<path d="M118.276 31.7781C111.467 31.7781 106.708 36.8275 106.708 44.0548C106.708 51.2821 111.329 56 117.939 56C123.529 56 129.548 52.1594 129.548 43.7233C129.548 36.6898 124.912 31.7781 118.271 31.7781H118.276ZM118.189 37.5977C121.775 37.5977 122.724 41.6831 122.724 43.8457C122.724 47.5129 120.78 50.1804 118.108 50.1804C115.435 50.1804 113.492 47.5537 113.492 43.9324C113.492 41.0099 114.721 37.5977 118.194 37.5977H118.189Z" fill="#3860A4"/>
<path d="M153.974 53.8833C153.857 52.4807 153.806 50.767 153.806 48.4871V32.2372H146.879V46.1868C146.879 46.6407 146.792 47.1202 146.655 47.4619C146.135 48.6656 144.793 49.8846 142.967 49.8846C141.927 49.8846 139.754 49.8846 139.754 44.9729V32.2321H132.828V45.6003C132.828 52.1084 136.143 55.9949 141.692 55.9949C144.242 55.9949 146.15 55.1533 147.501 54.174L147.593 55.5359H154.112L153.974 53.8782V53.8833Z" fill="#6D6C71"/>
</svg>
